HIERARCHY
ROOT pelvis
{
  OFFSET 0 100 0
  CHANNELS 6 Xposition Yposition Zposition Zrotation Xrotation Yrotation
  JOINT pelvis_right_femur
  {
    OFFSET -10.78128 -3.44521 -0.5502486
    CHANNELS 3 Zrotation Xrotation Yrotation
    JOINT right_femur_tibia
    {
      OFFSET -0.8047443 -44.0398 -0.1307829
      CHANNELS 3 Zrotation Xrotation Yrotation
      JOINT right_tibia_foot
      {
        OFFSET 3.006224 -47.83518 -5
        CHANNELS 3 Zrotation Xrotation Yrotation
        End Site
        {
          OFFSET 0 -5 15
        }
      }
    }
  }
  JOINT pelvis_left_femur
  {
    OFFSET 10.78128 -3.44521 -0.5502486
    CHANNELS 3 Zrotation Xrotation Yrotation
    JOINT left_femur_tibia
    {
      OFFSET 0.8047443 -44.0398 -0.1307829
      CHANNELS 3 Zrotation Xrotation Yrotation
      JOINT left_tibia_foot
      {
        OFFSET -4.370144 -48.10324 -4.275266
        CHANNELS 3 Zrotation Xrotation Yrotation
        End Site
        {
          OFFSET 0 -5 15
        }
      }
    }
  }
  JOINT pelvis_spine1
  {
    OFFSET 0 6.468898 -3.129235
    CHANNELS 3 Zrotation Xrotation Yrotation
    JOINT spine1
    {
      OFFSET 0 23.15396 4.99043
      CHANNELS 3 Zrotation Xrotation Yrotation
      JOINT spine2
      {
        OFFSET 0 20.79997 -5.064912
        CHANNELS 3 Zrotation Xrotation Yrotation
        JOINT neck
        {
          OFFSET 0 14.38658 9.616178
          CHANNELS 3 Zrotation Xrotation Yrotation
          End Site
          {
            OFFSET 0 20 0
          }
        }
      }
      JOINT right_manubrium
      {
        OFFSET -5.722621 16.35077 3.967754
        CHANNELS 3 Zrotation Xrotation Yrotation
        JOINT right_clavicle
        {
          OFFSET -13.16364 1.694482 -4.693211
          CHANNELS 3 Zrotation Xrotation Yrotation
          JOINT right_humerus
          {
            OFFSET -28.5034 -0.3100689 -2.792744
            CHANNELS 3 Zrotation Xrotation Yrotation
            JOINT right_radius
            {
              OFFSET -25.15693 0.02248979 -1.271978
              CHANNELS 3 Zrotation Xrotation Yrotation
              End Site
              {
                OFFSET -15 0 0
              }
            }
          }
        }
      }
      JOINT left_manubrium
      {
        OFFSET 5.722621 16.35077 3.967754
        CHANNELS 3 Zrotation Xrotation Yrotation
        JOINT left_clavicle
        {
          OFFSET 13.16364 1.694482 -4.693211
          CHANNELS 3 Zrotation Xrotation Yrotation
          JOINT left_humerus
          {
            OFFSET 29.39168 -1.063119 -2.237045
            CHANNELS 3 Zrotation Xrotation Yrotation
            JOINT left_radius
            {
              OFFSET 24.59957 -0.9528479 0.9047498
              CHANNELS 3 Zrotation Xrotation Yrotation
              End Site
              {
                OFFSET 15 -0 -0
              }
            }
          }
        }
      }
    }
  }
}
MOTION
Frames: 23
Frame Time: 0.0416666666667
0 103.5113 0 0.7074658 -0.6110113 -0.1762012 3.992113 -17.02513 11.29883 -0 44.06727 -0 -6.693465 -16.95611 -3.191516 -6.773099 9.834163 -23.07076 -0 3.486085 -0 14.40328 -13.56453 29.96008 -4.177322 -4.520899 4.789837 2.927531 11.05487 -8.287753 1.009679 21.14482 6.936089 3.271039 -24.62045 9.269608 8.144667 -20.63803 12.44489 84.36165 38.79767 -18.02184 -0 0 17.08869 -7.622735 9.442641 4.181658 5.874669 -20.2877 -1.242842 -92.15989 20.50191 20.77994 0 0 -13.51355 14.52749 15.16875 -3.47851
0.3804207 103.7142 1.345857 0.6846559 -0.5039267 -0.2975142 3.878136 -18.00005 10.70297 -0 42.97848 -0 -6.728479 -16.13424 -3.188053 -6.711503 10.03011 -22.51535 -0 3.193851 -0 13.96239 -14.0988 29.17304 -4.160743 -4.280044 4.661016 2.916157 10.97665 -8.360504 0.952878 21.09338 7.037138 3.318978 -24.5182 9.219434 8.022923 -20.41059 12.38407 84.58371 38.76043 -18.26102 -0 0 16.67378 -8.179208 9.721176 4.472965 5.983681 -20.48584 -1.36142 -91.71036 20.42555 20.21487 0 0 -14.1074 14.32765 15.00451 -3.219026
0.6863585 103.5004 3.737851 -0.06462227 0.9313796 -0.2498619 5.049019 -23.90015 8.284449 -0 30.55899 -0 -6.364491 -12.29588 -3.056276 -6.10493 11.02255 -19.74306 -0 6.610629 -0 8.789838 -18.54771 24.38416 -3.381222 -2.85552 4.289824 3.207759 9.84086 -8.520904 1.199693 20.68172 6.985188 3.456484 -25.19945 9.095398 6.539631 -19.17745 11.63568 85.57647 35.88426 -19.51918 -0 0 15.30971 -8.735058 9.348795 5.135048 6.767968 -20.81662 -1.214388 -91.9715 22.48278 19.36987 0 0 -15.91593 10.90501 14.98591 0.8961055
0.933911 102.9436 6.996739 -0.3870413 1.847821 0.02839667 5.184807 -28.1874 6.24056 -0 23.08858 -0 -6.114924 -8.43584 -3.053229 -5.729616 12.27095 -17.38143 -0 8.243923 -0 5.16005 -20.90756 20.34352 -2.995979 -2.007374 3.894632 3.294243 9.309504 -8.813688 1.159712 20.23315 7.203321 3.654628 -25.22737 8.891814 5.896418 -18.14818 11.26791 86.51868 34.98341 -20.89364 -0 0 13.75149 -10.29286 10.21827 5.905145 7.304226 -21.48097 -1.380753 -90.88703 23.03179 17.77454 0 0 -18.48911 8.935008 14.36201 3.327691
1.119017 102.0663 11.27667 -0.613284 2.635791 0.5592054 4.937963 -32.36892 4.074153 -0 16.0842 -0 -5.666139 -3.848102 -3.24573 -5.376449 14.06689 -14.70813 -0 9.923559 -0 1.321842 -22.56572 15.89575 -2.649512 -1.322187 3.420667 3.315305 8.964521 -9.230351 1.02374 19.65429 7.533609 3.874757 -24.92821 8.612666 5.461214 -16.99229 10.98133 87.68316 34.57746 -22.69585 -0 0 11.79826 -12.60981 11.84846 6.876584 7.813001 -22.38937 -1.705596 -88.99761 23.01417 15.49286 0 0 -21.99825 7.094874 13.28119 5.630453
1.253209 100.9422 16.57805 -0.7530563 3.104077 1.297741 4.551269 -35.51517 2.308299 -0 10.69542 -0 -5.025731 0.5323682 -3.630927 -5.094527 16.1206 -12.19703 -0 11.83142 -0 -1.938536 -23.11249 12.06121 -2.337619 -0.9617475 2.967038 3.273548 8.877016 -9.663269 0.8604121 19.0542 7.861798 4.05263 -24.36927 8.320281 5.246621 -15.91207 10.80566 88.87632 34.49038 -24.57471 -0 0 9.827876 -15.16745 13.8286 7.835799 8.210824 -23.3418 -2.091811 -86.76335 22.30211 12.96795 0 0 -25.68005 5.862733 11.96973 7.181119
1.349939 99.69591 22.90738 -0.8419138 3.179467 2.173205 4.291017 -37.36 1.172821 -0 7.013862 -0 -4.131144 4.471152 -4.273791 -4.853316 18.37422 -9.88895 -0 14.38886 -0 -4.493347 -22.51019 9.108585 -2.001807 -0.9360172 2.539376 3.179341 9.038534 -10.08019 0.7023264 18.47355 8.140216 4.151968 -23.56862 8.032306 5.184926 -14.91771 10.72272 90.08498 34.50489 -26.45183 -0 0 7.896136 -17.81849 16.0265 8.751981 8.454209 -24.24789 -2.520625 -84.40225 20.97764 10.36018 0 0 -29.30875 5.169934 10.50221 8.039794
1.423308 98.52554 30.16746 -0.9127379 2.740227 3.060231 4.485693 -37.31922 1.053488 -0 5.612116 -0 -3.045205 7.262617 -5.153891 -4.606677 20.4642 -8.05675 -0 18.01883 -0 -6.039022 -20.6723 7.549874 -1.587763 -1.246711 2.18602 3.047246 9.426134 -10.39061 0.595862 18.03734 8.288919 4.119181 -22.62269 7.795225 5.198033 -14.11325 10.73001 91.1411 34.36514 -27.99679 -0 0 6.246495 -20.10713 18.06399 9.458971 8.448668 -24.89856 -2.940164 -82.36357 19.31549 8.087906 0 0 -32.21147 5.017166 9.087401 8.17969
1.479918 97.70235 38.08479 -1.023079 1.732499 3.776602 5.312616 -34.88085 2.117917 -0 6.833186 -0 -2.036077 8.010495 -6.08246 -4.257457 21.66215 -7.056449 -0 23.25243 -0 -6.581649 -17.65956 7.625884 -1.030073 -1.761234 1.988444 2.900938 9.925274 -10.45688 0.5951036 17.92931 8.222962 3.917064 -21.74676 7.66317 5.16171 -13.6246 10.81378 91.76005 33.77502 -28.70267 -0 0 5.23835 -21.34496 19.34406 9.698596 8.08548 -25.00002 -3.272911 -81.22824 18.00176 6.74403 0 0 -33.4243 5.21423 8.038326 7.84256
1.521727 97.4958 46.14807 -1.235321 0.3350099 4.122819 6.503469 -30.06842 3.907624 -0 10.13411 -0 -1.654911 6.024065 -6.606655 -3.737765 20.77695 -7.182466 -0 30.50542 -0 -6.635018 -13.91308 8.935046 -0.3158033 -2.123778 2.087884 2.768291 10.30021 -10.11582 0.7374669 18.33115 7.906336 3.596712 -21.30078 7.658822 4.963768 -13.56883 10.94858 91.62787 32.60021 -28.05329 -0 0 5.283223 -20.85732 19.14732 9.284831 7.315414 -24.29287 -3.418189 -81.6088 18.0582 7.059426 0 0 -31.99449 5.323359 7.748723 7.656588
1.566322 98.01045 53.73582 -1.488827 -0.9802399 4.001585 7.379286 -23.92524 5.349297 -0 13.5393 -0 -2.358419 1.815377 -6.281128 -3.192613 16.7126 -8.207093 -0 39.65727 -0 -7.015018 -10.32361 10.30454 0.3870475 -1.882532 2.651546 2.651131 10.35222 -9.311573 0.981658 19.22391 7.448244 3.364723 -21.52309 7.693955 4.687389 -13.94009 11.1276 90.69531 31.2817 -26.08557 -0 0 6.457454 -18.88521 17.34886 8.532252 6.264424 -22.9114 -3.345087 -83.71829 19.96833 9.455878 0 0 -28.09557 4.804769 8.360106 8.446026
1.653847 99.08842 60.48959 -1.493908 -1.853493 3.522914 7.407844 -17.872 5.636784 -0 14.82713 -0 -3.83955 -2.557863 -5.191372 -2.892775 9.710106 -9.18599 -0 49.55164 -0 -7.935371 -7.639481 10.74803 0.7117602 -0.9895207 3.728635 2.491972 10.24983 -8.245312 1.191718 20.26113 7.063537 3.441462 -22.0509 7.572669 4.671395 -14.56668 11.40327 89.27272 30.79283 -23.63288 -0 0 8.150378 -17.0129 15.18109 8.171479 5.246225 -21.58905 -3.19628 -86.72768 22.58735 13.21718 0 0 -23.7706 3.611161 9.34866 10.31962
1.801498 100.4323 66.53622 -1.033022 -2.521367 2.898332 6.725322 -12.27049 5.079474 -0 13.89458 -0 -5.11995 -5.299196 -3.969781 -2.740341 1.618002 -9.168248 -0 57.87593 -0 -8.660004 -5.846572 10.68156 0.4584101 -0.003296398 5.089213 2.217668 10.42506 -7.257844 1.272138 21.04283 6.800401 3.734261 -22.07908 7.16242 5.046229 -15.30852 11.80762 87.71824 31.39537 -21.44272 -0 0 9.654958 -16.67762 14.15652 8.505393 4.540426 -21.00897 -3.156529 -88.97228 24.07739 16.53925 0 0 -21.18594 2.453496 9.874429 12.19269
1.988379 101.7661 72.21511 -0.3270687 -3.323338 2.272918 5.932484 -6.755881 4.516845 -0 12.38937 -0 -5.573098 -6.655283 -3.111859 -2.330913 -5.870561 -8.017846 -0 62.05109 -0 -8.61322 -4.680399 11.09941 -0.1130902 0.6033549 6.343682 1.846007 10.93432 -6.511567 1.253273 21.45727 6.503251 3.923394 -21.34897 6.532591 5.429526 -16.24262 12.23888 86.13926 32.0925 -19.35377 -0 0 11.12596 -17.65681 14.18878 9.282911 4.190061 -21.02622 -3.201647 -89.79825 24.00211 18.49781 0 0 -20.34934 1.872527 9.655333 13.13006
2.209654 102.8647 77.76189 0.2422216 -4.106361 1.699364 5.408507 -1.405636 4.256807 -0 11.32591 -0 -5.346146 -7.862584 -2.570134 -1.473226 -12.30578 -6.250755 -0 60.80468 -0 -7.996052 -4.078554 12.15848 -0.6235944 0.857778 7.254743 1.465535 11.41752 -5.960424 1.178393 21.59433 6.121075 3.868334 -20.31198 5.873153 5.454635 -17.4727 12.55675 84.44833 32.0878 -16.89421 -0 0 13.1109 -18.9369 14.30746 10.22054 4.094677 -21.08325 -3.176159 -89.95135 23.14861 19.6897 0 0 -20.04418 1.694676 8.985673 13.281
2.493581 103.5305 83.28835 0.5031858 -4.574609 1.167533 5.150922 3.456079 4.146438 -0 10.64093 -0 -4.80131 -9.679787 -2.100243 -0.2615311 -17.76884 -4.412679 -0 54.55535 -0 -7.188146 -4.013417 13.52245 -0.9133775 0.9417321 7.793395 1.13385 11.56808 -5.516439 1.067368 21.57541 5.746649 3.625815 -19.406 5.352245 5.069123 -18.91747 12.67967 82.63872 31.41149 -13.96994 -0 0 15.70356 -19.97866 14.02836 11.19925 4.165119 -20.85068 -2.991593 -90.12688 22.27082 20.75991 0 0 -19.50332 1.590822 8.250683 13.13505
2.872431 103.6074 88.85686 0.4869358 -4.650114 0.6414579 5.000303 7.673062 4.008425 -0 10.0031 -0 -4.125774 -12.21913 -1.58143 1.060035 -22.245 -2.89063 -0 44.8011 -0 -6.408791 -4.400965 14.9659 -1.005463 0.9575446 8.019187 0.8526686 11.28557 -5.106672 0.965546 21.52499 5.471016 3.289611 -18.77062 5.080695 4.355579 -20.34098 12.56508 80.84846 30.35875 -10.79826 -0 0 18.55473 -20.75625 13.3572 12.19255 4.347144 -20.24483 -2.65279 -90.51994 21.73287 21.80713 0 0 -18.49742 1.406448 7.724292 12.97605
3.359515 103.0394 94.51897 0.3212997 -4.443054 0.08092157 4.773319 11.23578 3.763859 -0 9.324896 -0 -3.395664 -15.08834 -1.013526 2.159115 -25.60666 -1.984944 -0 33.75158 -0 -5.768121 -5.103404 16.38629 -1.004763 0.93729 8.024452 0.5912217 10.62582 -4.674048 0.9407893 21.55506 5.338221 2.955393 -18.37366 5.110518 3.446971 -21.45293 12.20936 79.27424 29.23471 -7.721785 -0 0 21.13492 -21.43406 12.47613 13.17178 4.589514 -19.30935 -2.220436 -91.08127 21.64022 22.66749 0 0 -17.00492 1.122555 7.570315 12.90838
3.945916 101.9264 100.3336 0.1684752 -4.147047 -0.5414494 4.324378 14.18004 3.434169 -0 8.961174 -0 -2.689924 -17.47303 -0.4668805 2.703933 -27.73706 -1.87977 -0 23.97185 -0 -5.314034 -5.934116 17.68781 -1.044241 0.8739964 7.923299 0.3123409 9.774643 -4.196391 1.045211 21.722 5.345304 2.719596 -18.13202 5.411724 2.539634 -22.02325 11.68134 78.09493 28.33431 -5.119281 -0 0 22.94548 -22.18627 11.61838 14.06923 4.822292 -18.18579 -1.790343 -91.6851 21.92319 23.19685 0 0 -15.11956 0.7849665 7.823261 12.95903
4.611064 100.529 106.3725 0.1617949 -3.95614 -1.21561 3.608952 16.51318 3.129223 -0 9.686371 -0 -2.106197 -18.39564 -0.06058916 2.517245 -28.60919 -2.52701 -0 17.57938 -0 -5.038359 -6.700786 18.74382 -1.229674 0.741277 7.822346 -0.001860933 9.006072 -3.709409 1.2787 21.9904 5.441884 2.644105 -17.97821 5.862444 1.852891 -22.00779 11.12394 77.43624 27.83795 -3.317671 -0 0 23.73534 -23.08204 10.98558 14.79371 4.958703 -17.08223 -1.469527 -92.21353 22.38971 23.42335 0 0 -13.04815 0.4435908 8.3502 13.14462
5.33394 99.19721 112.7007 0.3400921 -3.992914 -1.876617 2.718708 18.15146 2.988242 -0 12.33432 -0 -1.707106 -17.20655 0.08587949 1.679855 -28.30899 -3.623077 -0 15.32005 -0 -4.887684 -7.28676 19.43225 -1.583282 0.5245944 7.77027 -0.3328253 8.572579 -3.299186 1.580059 22.25131 5.551052 2.717533 -17.89249 6.295073 1.524845 -21.58594 10.69212 77.36183 27.69403 -2.48766 -0 0 23.61804 -24.02166 10.6599 15.27612 4.925554 -16.19572 -1.337744 -92.6125 22.82557 23.54179 0 0 -11.06588 0.1119709 8.889969 13.49263
6.095331 98.25023 119.3365 0.6362138 -4.276009 -2.419055 1.836465 18.91985 3.08299 -0 17.23266 -0 -1.469664 -13.98883 -0.08219552 0.4675307 -27.00894 -4.768861 -0 16.34149 -0 -4.787205 -7.70548 19.70236 -2.035053 0.2528338 7.732051 -0.6313249 8.581528 -3.056411 1.859332 22.40111 5.613086 2.862063 -17.88644 6.583975 1.540273 -21.03832 10.47248 77.85791 27.65456 -2.58237 -0 0 22.95182 -24.79082 10.57687 15.50415 4.705988 -15.63354 -1.417378 -92.88395 23.10532 23.73744 0 0 -9.424021 -0.2182929 9.193392 14.002
6.877302 97.87838 126.2248 0.9401449 -4.743126 -2.740123 1.130993 18.64199 3.365035 -0 23.9107 -0 -1.314049 -9.495858 -0.541447 -0.8240094 -24.91046 -5.68189 -0 18.94014 -0 -4.661867 -8.070425 19.60396 -2.479693 -0.005393936 7.622948 -0.8441939 8.964322 -3.03031 2.046005 22.41135 5.617108 2.987576 -17.95873 6.700641 1.770111 -20.56567 10.45723 78.81785 27.47385 -3.382255 -0 0 22.07385 -25.2107 10.59994 15.52013 4.35443 -15.40079 -1.677219 -93.02231 23.22441 24.00596 0 0 -8.283442 -0.5297126 9.159164 14.59492
